<?xml version="1.0" standalone="no"?>
<!DOCTYPE svg PUBLIC "-//W3C//DTD SVG 20010904//EN"
 "http://www.w3.org/TR/2001/REC-SVG-20010904/DTD/svg10.dtd">
<svg version="1.0" xmlns="http://www.w3.org/2000/svg"
 width="1092.000000pt" height="944.000000pt" viewBox="0 0 1092.000000 944.000000"
 preserveAspectRatio="xMidYMid meet">

<g transform="translate(0.000000,944.000000) scale(0.100000,-0.100000)"
fill="#000000" stroke="none">
<path d="M6755 7174 c-190 -77 -229 -92 -275 -106 -19 -5 -39 -13 -45 -17 -5
-4 -53 -24 -105 -44 -52 -20 -170 -66 -262 -102 -92 -36 -172 -65 -178 -65 -6
0 -57 -20 -113 -44 -56 -24 -147 -60 -202 -81 -55 -20 -109 -41 -120 -46 -11
-4 -45 -18 -75 -30 -30 -12 -68 -27 -85 -34 -16 -7 -48 -18 -70 -25 -22 -7
-51 -18 -65 -25 -14 -7 -50 -23 -80 -35 -30 -11 -64 -25 -75 -29 -11 -5 -42
-17 -70 -26 -27 -10 -68 -26 -90 -35 -43 -19 -180 -73 -285 -113 -36 -13 -135
-52 -220 -85 -85 -34 -216 -84 -290 -112 -74 -27 -144 -55 -155 -60 -11 -5
-105 -42 -210 -81 -104 -39 -200 -77 -211 -84 -24 -15 -34 -70 -80 -445 -8
-63 -20 -164 -28 -225 -8 -60 -22 -164 -30 -230 -9 -66 -20 -149 -26 -185 -22
-147 -25 -141 102 -264 62 -60 139 -131 172 -158 53 -45 62 -49 95 -43 35 6
39 3 171 -127 74 -74 162 -158 195 -188 85 -77 87 -83 59 -147 -13 -29 -24
-64 -24 -76 0 -24 218 -286 334 -402 54 -54 61 -58 64 -38 4 24 -46 100 -146
225 -58 73 -64 104 -17 96 l25 -5 -25 23 c-36 33 -43 60 -35 139 4 39 3 82 -1
97 -10 36 -64 89 -77 76 -15 -15 -49 0 -56 24 -3 12 -8 19 -12 15 -4 -4 -20 5
-36 20 -29 28 -36 45 -16 40 15 -3 23 32 11 44 -6 6 -20 6 -37 -1 -21 -8 -27
-7 -23 2 2 7 12 12 21 12 25 -3 20 8 -32 59 -46 46 -50 47 -77 35 -25 -11 -29
-10 -57 21 -19 21 -28 40 -25 52 3 11 1 19 -4 19 -5 0 -9 6 -9 14 0 9 7 12 20
9 15 -4 20 0 20 15 0 25 -19 39 -30 22 -7 -11 -45 -15 -100 -11 -22 2 -8 43
42 126 58 95 155 195 229 235 94 51 164 82 194 87 l32 5 17 -78 c21 -100 41
-196 61 -304 9 -47 21 -103 27 -125 6 -22 15 -60 19 -85 10 -62 28 -154 44
-220 7 -30 21 -91 30 -135 10 -44 23 -102 30 -130 7 -27 16 -72 20 -100 4 -27
11 -57 16 -67 5 -9 10 -85 13 -170 2 -84 9 -174 17 -200 11 -40 10 -64 -5
-170 -10 -67 -24 -145 -31 -173 -7 -27 -16 -68 -20 -89 -3 -22 -13 -57 -22
-78 l-15 -38 -31 26 c-31 26 -91 56 -302 149 -135 60 -346 169 -365 190 -11
12 -24 46 -30 81 -27 156 -39 187 -84 223 -24 19 -64 46 -89 60 -25 14 -70 41
-102 60 -31 18 -58 31 -61 28 -3 -3 9 -11 25 -18 32 -14 50 -41 32 -47 -6 -2
-8 -9 -4 -15 8 -13 14 -57 8 -57 -14 0 -175 171 -175 186 0 17 1 17 13 -1 8
-10 19 -15 25 -11 6 3 15 -1 20 -10 5 -9 15 -15 23 -12 15 5 -101 84 -231 158
-41 24 -82 48 -90 55 -8 7 -31 21 -50 32 -19 10 -84 52 -145 92 -100 68 -299
191 -356 221 l-22 13 22 -29 c55 -71 162 -184 228 -242 40 -34 78 -75 85 -89
7 -15 31 -36 54 -48 22 -12 70 -46 106 -76 36 -30 92 -75 124 -101 33 -25 94
-75 138 -110 43 -34 102 -81 131 -103 46 -35 153 -127 191 -163 23 -22 26 -57
10 -111 -11 -38 -12 -57 -5 -69 13 -20 189 -139 466 -313 32 -20 160 -98 285
-173 225 -135 227 -137 291 -219 76 -97 241 -268 312 -323 28 -22 52 -42 55
-45 3 -4 30 -20 60 -37 202 -114 445 -92 623 56 112 93 184 215 213 365 18 93
14 149 -21 297 -19 81 -42 185 -60 270 -7 36 -20 97 -29 135 -9 39 -23 99 -30
135 -8 36 -22 97 -30 135 -9 39 -23 99 -30 135 -8 36 -24 108 -36 160 -11 52
-25 113 -30 135 -4 22 -18 83 -29 135 -12 52 -29 127 -37 165 -9 39 -22 99
-30 135 -8 36 -19 89 -25 119 -5 30 -12 58 -15 62 -3 5 -12 41 -20 81 -8 40
-22 102 -30 138 -8 36 -21 94 -28 130 -20 97 -46 217 -63 290 -8 36 -21 97
-28 135 -8 39 -19 91 -26 117 -14 52 -3 78 32 78 11 0 27 4 37 9 9 5 51 21 92
37 41 15 79 31 85 36 5 4 16 8 25 8 8 0 26 6 40 13 14 7 61 26 105 42 44 16
86 33 92 38 25 18 41 -2 58 -75 9 -40 28 -120 41 -178 14 -58 42 -177 64 -265
59 -245 75 -334 63 -346 -18 -18 -76 73 -97 151 -18 70 -38 101 -51 80 -4 -6
-22 -59 -41 -117 -25 -78 -31 -110 -24 -124 6 -10 47 -70 91 -134 64 -91 84
-113 94 -105 17 14 45 95 45 131 0 15 4 30 9 34 10 5 27 -47 56 -175 9 -41 32
-138 50 -215 70 -292 94 -394 125 -525 44 -193 97 -351 139 -420 82 -136 294
-381 404 -469 249 -197 530 -236 787 -107 128 65 219 148 315 292 36 53 88
112 138 157 45 40 110 99 145 132 62 58 65 60 115 58 44 -2 59 3 109 35 32 20
56 42 54 47 -1 6 -26 10 -55 10 -45 0 -56 4 -86 34 l-35 34 -58 -60 c-67 -69
-183 -171 -202 -175 -9 -2 -13 29 -15 132 -2 103 -8 153 -25 210 -39 137 -118
268 -232 387 l-68 71 58 119 c32 65 67 141 79 168 12 28 35 79 52 115 32 70
29 90 -14 90 -31 0 -55 10 -55 22 0 6 -11 23 -25 40 -30 35 -32 58 -6 58 10 0
23 6 29 13 33 39 314 819 310 857 -2 14 -9 25 -18 25 -8 0 -15 9 -15 20 0 11
-11 40 -23 64 -17 31 -22 53 -18 74 5 25 97 251 151 372 7 17 38 87 68 157 30
70 95 201 145 290 147 268 175 327 163 347 -5 8 -22 -11 -49 -56 -45 -73 -100
-140 -110 -135 -7 4 -8 1 -34 -58 -16 -36 -26 -61 -73 -185 -15 -38 -81 -155
-147 -260 -67 -104 -135 -212 -151 -240 -17 -27 -65 -102 -107 -165 -42 -64
-79 -123 -82 -130 -3 -8 1 -31 9 -50 65 -159 67 -196 14 -373 -22 -73 -61
-204 -86 -292 -26 -88 -69 -215 -96 -282 -39 -97 -49 -133 -49 -179 0 -41 -11
-93 -36 -169 -20 -60 -38 -112 -41 -114 -2 -3 -9 1 -15 7 -22 22 -47 12 -89
-38 -24 -28 -58 -60 -77 -72 -30 -18 -35 -19 -49 -6 -18 18 -73 179 -73 213 0
14 4 25 9 25 16 0 88 181 141 355 67 218 80 268 75 274 -8 7 -197 -407 -234
-514 l-18 -49 -20 69 c-24 82 -143 569 -143 585 0 6 14 23 30 37 33 28 37 47
15 69 -16 16 -21 66 -7 62 10 -3 273 275 344 362 30 37 45 65 42 75 -3 8 -10
15 -14 15 -4 0 -4 17 1 38 6 27 26 54 76 102 138 131 270 248 362 320 52 40
103 80 113 89 19 16 25 37 8 26 -5 -3 -19 -8 -30 -10 -29 -6 -90 -52 -174
-132 -40 -37 -128 -106 -197 -152 -68 -47 -161 -109 -206 -140 -45 -31 -84
-65 -87 -76 -3 -11 -6 -42 -6 -70 0 -30 -7 -61 -18 -77 -26 -41 -244 -292
-271 -313 -30 -23 -33 -18 -61 104 -13 53 -49 200 -80 326 -31 127 -55 235
-53 241 5 14 26 24 148 73 55 22 152 60 215 85 63 26 146 59 184 74 38 15 74
35 80 44 7 12 3 46 -17 130 -38 155 -108 457 -114 488 -3 14 -16 60 -30 102
-23 74 -30 83 -150 210 -156 166 -189 198 -205 198 -7 0 -85 -30 -173 -66z
m206 -396 c43 -172 76 -314 75 -316 -6 -5 -476 -187 -533 -206 -61 -20 -103
-51 -103 -75 0 -16 87 -388 235 -1001 60 -250 80 -330 144 -605 69 -295 90
-366 132 -449 38 -75 99 -163 135 -198 101 -93 250 -94 372 -2 32 25 34 25 47
8 30 -40 85 -165 106 -240 26 -93 31 -258 10 -344 -22 -92 -79 -194 -145 -260
-119 -121 -263 -182 -427 -182 -227 1 -398 93 -514 276 -77 121 -68 89 -286
1016 -33 140 -100 424 -149 630 -117 496 -132 561 -196 854 -29 136 -59 254
-65 262 -17 21 -50 17 -131 -15 -155 -62 -449 -172 -588 -221 -80 -28 -165
-60 -189 -71 l-44 -20 6 -52 c7 -68 84 -438 248 -1192 11 -49 60 -277 109
-505 49 -228 121 -561 160 -740 96 -440 98 -454 89 -531 -21 -176 -126 -318
-289 -391 -243 -110 -514 33 -585 307 -20 79 -19 141 6 255 62 289 74 447 49
685 -13 129 -10 112 -96 520 -40 193 -100 485 -134 650 -33 165 -76 377 -96
470 -19 94 -37 184 -40 200 -3 17 -13 41 -21 54 -12 19 -21 22 -48 18 -43 -7
-354 -121 -419 -154 -84 -42 -181 -119 -272 -217 -63 -67 -84 -84 -80 -66 3
14 15 95 25 180 30 243 81 642 87 678 6 38 5 37 204 111 217 79 1070 409 1760
680 151 60 379 148 505 196 127 48 370 143 540 210 184 73 314 119 319 114 6
-5 45 -149 87 -321z m233 62 c15 -46 81 -325 115 -483 l19 -87 -83 76 c-52 47
-88 88 -94 107 -10 29 -52 203 -117 477 -14 58 -27 112 -30 120 -3 8 36 -25
85 -75 70 -68 94 -100 105 -135z m30 -579 c106 -106 108 -109 85 -121 -20 -11
-391 -163 -507 -208 l-42 -16 -105 109 c-57 61 -104 115 -104 121 -1 7 54 33
122 59 67 26 187 74 267 105 80 32 152 58 160 59 9 1 64 -48 124 -108z m-493
-441 c5 -19 59 -240 119 -490 253 -1045 296 -1213 347 -1347 10 -26 -29 -12
-70 26 -101 94 -170 259 -247 596 -23 99 -61 261 -85 360 -50 204 -73 303
-110 460 -14 61 -41 175 -60 255 -65 274 -75 318 -75 325 0 3 38 -29 85 -72
61 -55 89 -88 96 -113z m-979 -129 c16 -74 27 -140 25 -145 -3 -6 -132 -58
-287 -116 l-283 -104 -103 109 c-57 61 -103 115 -104 121 0 6 123 57 273 113
151 56 305 115 343 131 107 45 104 47 136 -109z m2305 -213 c-3 -8 -6 -5 -6 6
-1 11 2 17 5 13 3 -3 4 -12 1 -19z m-2871 -329 c13 -63 31 -143 38 -179 8 -36
35 -162 61 -280 25 -118 75 -345 110 -505 158 -714 218 -988 265 -1206 27
-129 63 -292 79 -364 40 -177 45 -219 31 -295 -13 -72 -55 -186 -80 -220 -9
-11 -27 -22 -40 -22 -14 -1 -30 -5 -37 -10 -7 -5 -14 -5 -18 2 -4 6 -15 8 -25
5 -10 -3 -21 -1 -25 5 -9 15 -31 12 -49 -6 -16 -15 -17 -15 -20 8 -2 18 -22
20 -36 3 -11 -13 -10 -14 4 -9 9 3 16 1 16 -5 0 -6 -9 -11 -20 -11 -11 0 -20
5 -20 11 0 8 -15 10 -45 7 -28 -4 -46 -1 -49 6 -3 7 -8 6 -15 -4 -7 -10 -11
-11 -11 -2 0 6 -4 12 -10 12 -5 0 -10 -6 -10 -14 0 -21 -40 -28 -40 -8 -1 16
-2 16 -13 0 -9 -11 -24 -15 -43 -13 -16 1 -32 -2 -36 -8 -5 -9 -10 -9 -18 -1
-8 8 -1 14 27 21 69 17 178 89 241 158 67 73 133 195 157 290 31 124 30 130
-150 955 -31 140 -71 327 -90 415 -18 88 -59 274 -90 414 -117 530 -235 1097
-235 1126 0 5 39 -29 86 -76 l85 -86 25 -114z m-989 -24 c12 -61 24 -124 27
-141 6 -28 3 -33 -21 -42 -135 -50 -179 -71 -250 -118 -100 -67 -195 -168
-259 -279 -27 -46 -53 -84 -59 -84 -5 0 -56 44 -113 98 l-103 98 25 56 c70
159 222 318 386 402 58 30 314 125 330 122 10 -1 21 -35 37 -112z m-237 -885
c0 -5 -2 -10 -4 -10 -3 0 -8 5 -11 10 -3 6 -1 10 4 10 6 0 11 -4 11 -10z
m3731 -427 c122 -126 175 -215 209 -347 68 -268 -35 -572 -242 -712 -24 -16
-44 -32 -46 -36 -2 -5 -7 -8 -12 -8 -4 0 -31 -15 -59 -34 -138 -93 -378 -94
-562 -1 -72 36 -205 133 -195 142 3 3 36 -1 74 -7 85 -16 277 -8 342 13 195
64 336 177 419 336 54 105 71 169 78 291 6 112 -13 259 -42 326 -8 18 -22 50
-30 69 -8 19 -12 35 -7 35 4 0 37 -30 73 -67z m-3391 -107 c0 -11 -19 -15 -25
-6 -3 5 1 10 9 10 9 0 16 -2 16 -4z m-816 -262 c3 -8 2 -12 -4 -9 -6 3 -10 10
-10 16 0 14 7 11 14 -7z m616 -604 c0 -5 -5 -10 -11 -10 -5 0 -7 5 -4 10 3 6
8 10 11 10 2 0 4 -4 4 -10z"/>
<path d="M8416 6634 c-9 -24 -7 -28 9 -14 17 14 20 30 6 30 -5 0 -12 -7 -15
-16z"/>
<path d="M3380 3482 c0 -12 23 -32 37 -32 7 0 13 5 13 10 0 6 -7 10 -15 10 -8
0 -15 5 -15 10 0 6 -4 10 -10 10 -5 0 -10 -4 -10 -8z"/>
</g>
</svg>
